<?xml version="1.0" standalone="no"?>
<!DOCTYPE svg PUBLIC "-//W3C//DTD SVG 20010904//EN"
 "http://www.w3.org/TR/2001/REC-SVG-20010904/DTD/svg10.dtd">
<svg version="1.0" xmlns="http://www.w3.org/2000/svg"
 width="600.000000pt" height="600.000000pt" viewBox="0 0 600.000000 600.000000"
 preserveAspectRatio="xMidYMid meet">
<metadata>
Created by potrace 1.11, written by Peter Selinger 2001-2013
</metadata>
<g transform="translate(0.000000,600.000000) scale(0.100000,-0.100000)"
fill="#000000" stroke="none">
<path d="M2827 5978 c-19 -31 -169 -288 -497 -853 -150 -258 -310 -533 -355
-610 -45 -77 -126 -216 -180 -310 -54 -93 -117 -203 -141 -243 -24 -40 -44
-77 -44 -83 0 -20 52 -28 154 -22 58 3 106 3 106 -1 0 -6 -52 -100 -333 -601
-49 -88 -156 -279 -237 -425 -81 -146 -186 -335 -234 -420 -48 -85 -85 -161
-84 -170 4 -17 11 -17 160 -6 l98 7 -69 -118 c-37 -65 -130 -226 -206 -358
-76 -132 -190 -330 -253 -440 -64 -110 -189 -328 -279 -484 -98 -170 -163
-293 -161 -305 3 -21 3 -21 876 -24 l872 -2 0 -255 0 -255 865 0 865 0 0 255
0 255 876 2 c767 3 878 5 886 18 7 11 -12 51 -70 150 -43 74 -134 229 -202
345 -68 116 -154 262 -190 325 -37 63 -169 287 -293 498 l-225 382 42 0 c91 0
198 13 202 25 3 7 -52 120 -121 251 -193 364 -303 572 -405 764 -51 96 -125
236 -165 310 -40 74 -91 172 -113 216 l-41 82 87 -2 c72 -1 87 2 90 15 1 9
-24 61 -56 115 -32 55 -97 164 -144 244 -84 143 -345 586 -648 1100 -86 146
-207 352 -270 458 -118 200 -134 217 -163 170z m82 -146 c25 -42 100 -171 168
-286 68 -115 122 -210 120 -212 -4 -5 -627 63 -633 68 -2 3 29 60 69 129 40
68 106 181 147 252 41 70 76 127 79 127 3 0 26 -35 50 -78z m-119 -517 c269
-26 400 -41 406 -48 6 -6 -59 -229 -158 -540 -43 -137 -52 -156 -62 -140 -7
10 -42 74 -78 143 -76 144 -198 374 -270 508 l-50 92 29 0 c15 0 98 -7 183
-15z m-165 -195 c157 -296 228 -430 274 -512 l43 -78 -39 0 c-21 0 -227 -11
-458 -25 -230 -13 -420 -23 -421 -22 -1 1 33 61 76 132 42 72 128 218 190 325
207 357 222 382 230 373 4 -4 52 -91 105 -193z m794 -153 c338 -574 382 -648
485 -820 58 -98 102 -177 98 -175 -24 11 -136 71 -257 138 -77 42 -214 117
-305 167 -418 228 -412 224 -405 242 4 9 35 111 70 226 106 348 150 485 155
485 3 0 75 -118 159 -263z m-614 -521 c-27 -13 -99 -46 -160 -74 -60 -27 -198
-90 -305 -140 -496 -229 -630 -289 -626 -283 37 66 205 356 234 403 l38 63 65
8 c35 4 224 16 419 26 195 10 362 18 370 19 8 0 -7 -10 -35 -22z m400 -106
c77 -42 226 -123 330 -180 358 -195 400 -220 380 -220 -28 0 -849 72 -853 76
-2 1 -39 370 -42 422 0 4 22 -8 185 -98z m-425 -166 c-72 -137 -149 -285 -172
-330 l-41 -81 -151 37 c-464 115 -503 123 -569 116 -34 -4 -60 -6 -57 -3 3 2
91 43 195 92 238 109 496 228 735 339 101 47 186 84 187 82 2 -2 -55 -115
-127 -252z m235 -364 c25 -289 48 -543 51 -565 l5 -40 -23 27 c-13 15 -115
131 -228 258 -113 128 -204 236 -203 240 1 5 80 158 175 342 152 293 173 329
176 298 1 -19 23 -271 47 -560z m316 120 c129 -11 295 -25 371 -31 l136 -12
-211 -206 c-117 -113 -276 -268 -354 -345 -92 -90 -144 -134 -147 -125 -2 8
-7 50 -10 94 -19 251 -46 584 -50 613 -6 39 -33 37 265 12z m-1082 -149 c156
-38 284 -71 285 -73 2 -2 -85 -173 -193 -381 -159 -307 -197 -373 -203 -355
-10 32 -176 878 -173 878 1 0 129 -31 284 -69z m1803 -258 c92 -175 165 -319
163 -322 -5 -4 -1037 -50 -1043 -46 -4 3 700 685 707 685 3 0 81 -143 173
-317z m-2048 -173 c47 -239 86 -445 86 -457 0 -27 11 -20 -275 -173 -126 -68
-293 -158 -370 -200 -77 -42 -180 -99 -230 -125 -49 -27 -101 -55 -114 -64
l-24 -15 18 35 c10 18 64 115 120 214 56 99 145 257 197 350 277 493 419 747
454 812 21 39 42 69 45 65 3 -4 45 -203 93 -442z m817 52 c125 -141 226 -258
224 -260 -5 -6 -830 -222 -848 -222 -6 0 -5 5 0 13 6 6 95 175 198 375 103
200 190 360 194 357 3 -4 108 -122 232 -263z m1604 -582 c92 -173 188 -353
212 -399 l46 -84 -154 80 c-333 174 -855 446 -1071 559 -125 65 -226 119 -225
120 1 2 223 12 492 24 270 11 497 22 505 24 8 1 18 0 21 -3 4 -3 82 -148 174
-321z m-1375 255 c0 -3 -15 -58 -34 -123 -19 -64 -57 -200 -86 -302 -29 -102
-55 -191 -59 -197 -5 -9 -22 -3 -61 21 -30 18 -145 88 -255 156 -110 67 -238
145 -284 173 l-83 51 168 44 c93 25 284 75 424 112 285 75 270 72 270 65z
m700 -316 c124 -65 377 -196 563 -292 l339 -175 -89 -6 c-48 -4 -261 -13 -473
-21 -212 -8 -427 -17 -478 -21 l-92 -6 -29 64 c-28 59 -281 630 -322 726 l-19
44 188 -98 c103 -53 288 -150 412 -215z m-592 151 c28 -63 72 -164 99 -225
129 -286 185 -416 182 -419 -3 -3 -507 142 -516 148 -1 1 9 40 23 86 14 47 52
180 85 295 70 245 68 239 74 234 2 -3 26 -56 53 -119z m-740 -262 c155 -95
303 -186 329 -203 l48 -29 -115 -8 c-63 -5 -401 -31 -750 -58 -349 -27 -671
-52 -715 -55 l-80 -6 40 22 c22 11 96 51 165 88 69 38 220 119 335 181 116 63
262 142 325 177 63 34 120 63 126 63 6 0 137 -78 292 -172z m311 -302 c-2 -1
-240 -124 -528 -271 -367 -188 -528 -266 -537 -259 -18 12 -364 415 -364 424
0 3 226 23 503 44 276 21 579 43 672 50 186 14 261 18 254 12z m580 -105 c89
-27 164 -51 166 -53 2 -2 36 -76 76 -163 68 -152 103 -233 303 -685 47 -106
80 -187 72 -180 -12 13 -242 296 -764 940 -96 118 -179 220 -184 227 -11 13
80 -10 331 -86z m-510 57 c-24 -44 -688 -1208 -694 -1216 -1 -1 -66 107 -145
240 -79 134 -169 286 -200 339 l-57 95 546 281 c300 154 550 281 554 282 4 1
2 -9 -4 -21z m156 -223 c36 -121 95 -310 129 -420 74 -233 82 -265 67 -265
-11 0 -277 -94 -754 -266 -131 -48 -240 -84 -242 -82 -3 2 158 290 358 640
199 349 365 630 369 624 3 -6 36 -110 73 -231z m112 53 c508 -627 767 -945
821 -1011 l65 -79 -79 40 c-43 22 -207 103 -364 180 l-286 141 -62 198 c-34
109 -90 293 -126 408 -35 116 -68 218 -71 228 -4 9 -5 17 -2 17 2 0 49 -55
104 -122z m1318 -65 c-29 -87 -108 -315 -175 -508 -67 -192 -131 -377 -142
-410 -25 -73 -34 -84 -43 -54 -5 13 -46 110 -93 214 -280 628 -383 867 -378
873 6 5 641 38 788 41 l97 1 -54 -157z m339 -268 c112 -192 202 -353 198 -357
-4 -4 -119 -59 -257 -123 -137 -64 -320 -150 -405 -190 -85 -41 -156 -73 -157
-71 -2 1 24 81 56 177 59 172 316 920 327 949 4 12 9 9 19 -10 8 -14 106 -182
219 -375z m-3274 181 c94 -109 169 -200 168 -201 -3 -2 -264 -141 -735 -392
-57 -30 -103 -53 -103 -50 0 3 39 72 86 153 112 193 210 363 315 546 46 81 87
147 91 145 4 -1 84 -92 178 -201z m245 -313 c22 -38 114 -195 206 -350 114
-193 162 -283 152 -283 -9 0 -143 29 -297 64 -155 36 -416 94 -581 131 -165
36 -307 68 -315 71 -14 5 68 51 490 274 107 56 218 115 245 131 28 15 52 28
55 28 3 1 23 -29 45 -66z m3382 -470 c60 -104 165 -282 233 -398 67 -116 125
-213 127 -217 2 -5 -241 -8 -541 -8 l-546 0 302 405 c167 222 306 404 309 405
4 0 56 -84 116 -187z m-1378 -92 c134 -67 242 -124 240 -126 -4 -4 -65 -27
-324 -125 -99 -37 -288 -109 -419 -159 -132 -50 -241 -89 -243 -87 -3 2 29 96
70 208 41 111 100 275 133 364 l58 161 121 -57 c66 -32 230 -112 364 -179z
m878 -135 c-155 -206 -285 -371 -289 -367 -4 3 -54 89 -112 189 l-105 184 122
58 c67 31 205 97 307 144 102 48 221 105 265 126 44 21 83 39 87 39 4 1 -120
-167 -275 -373z m-1432 347 c-9 -24 -175 -481 -221 -608 -20 -55 -39 -103 -43
-107 -3 -3 -76 33 -161 81 -85 48 -227 128 -315 178 -88 49 -175 99 -193 110
l-33 20 148 52 c136 48 536 191 728 260 98 35 99 35 90 14z m-2324 -160 c41
-65 140 -223 220 -350 l148 -233 -424 0 -424 0 53 93 c147 258 349 607 352
607 1 0 35 -53 75 -117z m339 18 c168 -38 432 -97 587 -132 155 -35 279 -67
275 -71 -6 -6 -289 -134 -650 -294 l-143 -63 -33 52 c-18 29 -108 170 -199
314 -92 144 -167 264 -167 267 0 3 6 3 13 1 6 -2 149 -36 317 -74z m1345 -435
l289 -166 -754 0 -755 0 110 51 c104 48 266 121 590 265 l140 62 45 -23 c25
-13 175 -98 335 -189z m1620 28 c55 -96 102 -179 103 -184 2 -6 -216 -10 -590
-10 l-593 1 105 40 c58 22 204 78 325 124 121 46 290 111 375 144 85 32 160
60 165 60 6 0 55 -78 110 -175z m-435 -484 l0 -230 -805 0 -805 0 0 230 0 230
805 0 805 0 0 -230z"/>
</g>
</svg>
