<?xml version="1.0" standalone="no"?>
<!DOCTYPE svg PUBLIC "-//W3C//DTD SVG 20010904//EN"
 "http://www.w3.org/TR/2001/REC-SVG-20010904/DTD/svg10.dtd">
<svg version="1.0" xmlns="http://www.w3.org/2000/svg"
 width="600.000000pt" height="600.000000pt" viewBox="0 0 600.000000 600.000000"
 preserveAspectRatio="xMidYMid meet">
<metadata>
Created by potrace 1.11, written by Peter Selinger 2001-2013
</metadata>
<g transform="translate(0.000000,600.000000) scale(0.100000,-0.100000)"
fill="#000000" stroke="none">
<path d="M2785 5879 c-33 -56 -67 -113 -75 -128 -8 -14 -58 -100 -110 -189
-52 -90 -108 -187 -125 -216 -38 -66 -323 -556 -336 -576 -29 -48 -495 -851
-510 -880 l-18 -35 27 -11 c15 -7 34 -10 44 -9 17 4 133 7 176 6 l24 -1 -25
-42 c-13 -24 -39 -70 -57 -103 -18 -33 -44 -77 -57 -97 -12 -21 -23 -39 -23
-42 0 -2 -25 -47 -55 -101 -30 -53 -111 -197 -179 -318 -68 -122 -186 -332
-261 -467 -233 -414 -251 -448 -243 -455 8 -9 30 -9 152 0 l109 7 -23 -39
c-12 -21 -73 -125 -134 -230 -61 -106 -116 -201 -121 -210 -6 -10 -23 -40 -38
-68 -15 -27 -32 -57 -37 -65 -5 -8 -94 -161 -196 -340 -102 -179 -241 -419
-307 -534 -95 -164 -118 -212 -110 -225 9 -15 87 -16 879 -16 l869 0 0 -248 0
-247 861 0 861 0 1 240 c0 132 1 243 1 248 1 4 393 7 872 7 630 0 876 3 887
11 14 10 13 16 -7 50 -59 99 -201 342 -273 464 -43 74 -82 142 -87 150 -14 22
-184 312 -197 335 -6 11 -33 56 -59 100 -26 44 -56 94 -65 110 -10 17 -78 134
-153 260 -74 127 -134 231 -132 233 1 1 51 5 111 8 60 3 115 11 121 16 10 8 0
35 -43 117 -31 58 -79 149 -107 201 -27 52 -62 118 -77 145 -29 54 -56 104
-257 485 -250 471 -290 547 -347 654 l-16 29 79 -7 c80 -6 111 -2 111 16 0 9
-239 419 -430 738 -31 52 -68 115 -82 140 -21 37 -186 319 -217 370 -5 8 -85
143 -178 300 -310 525 -329 555 -344 558 -10 2 -35 -32 -74 -99z m240 -254
c81 -137 156 -265 167 -284 l19 -33 -83 7 c-46 3 -96 8 -113 10 -36 5 -134 15
-191 20 -22 1 -62 6 -90 10 -27 4 -75 8 -107 11 -32 2 -62 6 -67 9 -4 3 60
122 143 265 117 200 154 257 163 247 6 -6 78 -124 159 -262z m-285 -320 c19
-2 64 -7 100 -10 36 -3 76 -8 90 -10 14 -2 52 -7 85 -10 33 -3 85 -8 115 -12
30 -3 61 -6 67 -6 18 0 18 0 -98 -367 -28 -91 -52 -169 -54 -175 -1 -5 -10
-37 -20 -70 -11 -33 -20 -63 -21 -67 -1 -5 -3 -11 -4 -15 -1 -5 -2 -11 -1 -15
3 -23 -18 -2 -37 35 -11 23 -41 78 -65 122 -84 155 -151 280 -267 498 l-62
118 68 -6 c38 -3 85 -8 104 -10z m-180 -77 c23 -46 46 -87 50 -93 4 -5 31 -55
60 -110 29 -55 70 -131 90 -170 21 -38 57 -106 80 -150 23 -44 56 -104 72
-133 16 -30 27 -57 23 -60 -4 -4 -28 -7 -53 -8 -26 -1 -94 -4 -152 -8 -58 -3
-152 -9 -210 -12 -58 -2 -132 -7 -165 -9 -33 -2 -118 -7 -190 -10 -71 -4 -133
-9 -137 -11 -16 -10 -8 17 16 54 13 20 124 209 246 420 122 210 223 382 225
382 2 0 22 -37 45 -82z m839 -237 c72 -123 131 -228 131 -233 0 -4 5 -8 10 -8
6 0 10 -4 10 -9 0 -5 77 -138 171 -297 94 -159 183 -309 197 -334 13 -25 28
-49 32 -55 12 -17 60 -105 60 -111 0 -3 -19 5 -42 19 -34 20 -428 236 -623
342 -22 12 -65 36 -95 52 -30 17 -91 49 -135 73 -44 24 -82 45 -84 46 -5 4 30
124 102 354 98 313 117 377 117 390 0 23 11 6 149 -229z m-619 -579 c-105 -52
-262 -125 -271 -126 -3 -1 -25 -11 -50 -23 -24 -12 -80 -38 -124 -58 -99 -46
-153 -71 -279 -129 -54 -25 -100 -46 -102 -46 -2 0 -56 -25 -120 -55 -64 -31
-119 -54 -121 -51 -6 5 266 476 275 477 4 0 14 2 22 3 8 2 74 6 145 10 72 4
164 9 205 11 98 7 217 13 365 21 66 3 122 8 124 10 2 2 9 4 15 3 6 0 -32 -21
-84 -47z m49 -173 c-50 -96 -127 -244 -171 -329 -44 -85 -83 -158 -87 -163 -4
-4 -45 2 -92 14 -46 11 -93 22 -104 24 -11 2 -112 27 -225 56 -174 44 -218 52
-290 51 l-85 -1 50 24 c53 25 107 50 390 180 99 46 214 99 255 118 41 19 98
45 125 57 28 12 95 43 150 69 155 72 170 79 172 77 2 -1 -38 -81 -88 -177z
m524 5 c177 -97 340 -186 362 -199 22 -12 84 -45 138 -74 53 -29 97 -55 97
-58 0 -2 -21 -2 -47 2 -27 3 -79 8 -118 10 -90 6 -193 15 -226 21 -14 2 -64 6
-110 9 -46 3 -100 8 -119 10 -19 2 -72 6 -116 9 -72 5 -156 15 -161 19 0 1 -4
40 -8 87 -4 47 -9 108 -11 135 -2 28 -6 75 -9 105 -2 30 -6 65 -9 78 -3 12 -1
22 5 22 5 0 154 -79 332 -176z m-379 81 c13 -131 21 -224 31 -360 3 -38 8 -90
10 -115 5 -51 15 -152 20 -220 4 -61 16 -198 20 -235 1 -16 6 -72 10 -124 l8
-95 -34 40 c-54 63 -266 302 -343 388 -39 43 -74 84 -79 91 -7 13 28 85 178
370 29 55 78 151 110 212 32 62 60 112 61 110 1 -1 5 -29 8 -62z m226 -399
c41 -3 102 -8 135 -11 58 -4 154 -13 225 -20 19 -2 71 -7 115 -10 117 -9 157
-14 161 -18 2 -2 -123 -127 -278 -278 -154 -151 -314 -307 -354 -346 -40 -40
-75 -69 -77 -65 -5 7 -12 72 -22 207 -3 39 -8 90 -10 115 -3 25 -7 79 -10 120
-3 41 -8 91 -10 110 -2 19 -7 74 -10 122 l-7 86 33 -3 c19 -2 68 -6 109 -9z
m-946 -161 c16 -3 32 -8 36 -10 4 -2 22 -7 41 -10 53 -9 193 -47 202 -55 7 -6
-19 -59 -192 -390 -42 -80 -103 -198 -136 -262 -57 -111 -66 -123 -71 -95 -1
7 -4 23 -7 37 -5 22 -13 59 -31 156 -3 12 -28 138 -56 280 -29 143 -53 271
-55 285 -1 15 -5 31 -8 35 -2 5 -8 30 -11 55 l-6 46 132 -33 c73 -19 146 -36
162 -39z m1641 42 c12 -24 132 -253 175 -332 80 -146 150 -283 150 -292 0 -6
-36 -11 -82 -13 -46 -1 -112 -3 -148 -5 -36 -1 -139 -6 -230 -9 -91 -4 -203
-9 -250 -11 -266 -13 -340 -15 -340 -10 0 2 75 79 168 169 424 416 537 526
542 526 3 0 10 -10 15 -23z m-1970 -63 c4 -21 8 -47 11 -56 3 -10 7 -29 10
-43 6 -34 10 -57 29 -150 8 -44 18 -96 21 -115 3 -19 11 -62 19 -95 7 -33 16
-78 19 -100 4 -22 11 -56 16 -75 5 -19 11 -51 14 -70 3 -19 12 -69 20 -110 8
-41 12 -78 8 -81 -6 -6 -112 -64 -322 -177 -36 -19 -87 -47 -115 -62 -27 -16
-80 -44 -117 -63 -74 -39 -285 -153 -308 -167 -45 -27 -150 -79 -150 -75 0 3
35 67 78 143 43 76 81 144 85 152 4 8 11 22 17 30 5 8 38 67 73 130 498 893
577 1033 583 1028 2 -2 6 -22 9 -44z m735 -174 c3 -3 39 -43 80 -90 41 -47 80
-90 85 -96 6 -6 35 -39 65 -74 30 -35 64 -74 75 -86 11 -12 35 -38 53 -58 17
-19 32 -39 32 -44 0 -5 -26 -15 -57 -22 -71 -17 -66 -15 -133 -34 -55 -15
-512 -135 -540 -142 -8 -2 -40 -10 -70 -18 -30 -9 -58 -16 -61 -16 -4 0 12 35
34 78 89 168 117 222 188 362 41 80 76 147 79 150 3 3 25 44 49 91 l43 86 37
-41 c20 -22 38 -43 41 -46z m1633 -514 c38 -74 127 -242 201 -381 45 -83 143
-268 170 -320 8 -16 14 -31 12 -32 -2 -2 -36 14 -77 35 -103 54 -336 175 -514
267 -82 43 -190 99 -240 125 -49 26 -169 88 -265 138 -255 132 -366 191 -360
193 3 1 32 3 65 4 162 7 388 17 460 20 44 2 156 7 250 10 93 4 171 7 172 8 1
1 21 3 46 3 l44 2 36 -72z m-1320 -288 c-47 -161 -87 -302 -90 -313 -2 -11 -6
-25 -8 -32 -3 -9 -245 131 -475 277 -8 5 -61 37 -117 72 l-102 63 62 17 c70
19 251 66 507 134 96 25 202 54 235 63 33 10 63 16 66 15 4 -2 -32 -135 -78
-296z m582 77 c55 -29 177 -92 270 -140 94 -49 292 -152 440 -229 149 -78 296
-155 327 -171 31 -16 55 -31 53 -34 -6 -5 -29 -7 -240 -16 -184 -8 -253 -11
-445 -20 -69 -3 -181 -8 -250 -11 -69 -3 -141 -6 -159 -7 -35 -2 -35 -1 -77
93 -55 122 -74 165 -122 275 -82 186 -203 459 -209 468 -3 6 66 -27 153 -73
87 -46 204 -106 259 -135z m-439 153 c4 -13 17 -45 30 -73 67 -145 302 -680
299 -683 -2 -2 -36 6 -77 18 -71 21 -203 58 -223 63 -5 2 -26 8 -45 14 -19 6
-68 21 -108 33 -58 17 -73 25 -69 38 2 10 42 151 88 314 46 164 87 298 91 298
4 0 10 -10 14 -22z m-818 -293 c161 -99 196 -121 350 -215 84 -51 151 -94 150
-96 -2 -1 -37 -5 -78 -8 -41 -4 -97 -8 -125 -10 -27 -3 -93 -7 -145 -11 -52
-4 -113 -8 -135 -10 -22 -2 -80 -6 -130 -10 -49 -3 -117 -8 -150 -11 -33 -3
-87 -7 -120 -9 -33 -2 -60 -4 -60 -5 0 0 -31 -3 -70 -5 -38 -3 -101 -7 -140
-10 -132 -11 -190 -15 -245 -20 -134 -11 -265 -17 -260 -12 4 4 163 91 435
237 44 23 98 53 120 65 22 12 83 45 135 73 52 28 140 76 195 106 l100 55 43
-25 c24 -14 82 -50 130 -79z m447 -373 c-6 -5 -129 -70 -275 -144 -146 -75
-386 -197 -533 -273 -148 -75 -269 -135 -271 -133 -2 4 -179 211 -186 218 -3
3 -30 34 -60 70 -30 36 -67 79 -83 95 -16 17 -33 38 -38 48 -8 15 -5 17 28 18
21 1 52 2 68 4 17 1 71 6 120 9 156 12 198 16 260 21 33 2 96 7 140 10 44 3
100 8 125 10 71 6 290 22 405 30 99 6 240 17 242 19 1 1 17 3 35 4 20 2 29 -1
23 -6z m549 -102 c94 -27 175 -55 182 -62 7 -7 101 -213 209 -458 109 -245
213 -478 231 -519 19 -41 33 -75 31 -77 -1 -2 -61 69 -132 158 -72 88 -137
168 -145 178 -24 29 -112 136 -221 270 -55 69 -116 143 -134 165 -34 42 -137
169 -158 195 -7 8 -51 62 -98 120 -47 58 -88 110 -92 116 -4 7 29 1 76 -13 45
-13 158 -46 251 -73z m-505 23 c-18 -32 -61 -107 -96 -167 -35 -60 -63 -110
-63 -111 0 -1 -36 -64 -80 -140 -44 -76 -80 -139 -80 -140 0 -2 -26 -48 -57
-102 -31 -54 -61 -107 -67 -118 -57 -105 -213 -372 -221 -377 -5 -4 -6 -8 -1
-8 11 0 -14 -30 -25 -30 -5 0 -9 4 -9 9 0 5 -60 109 -133 232 -73 123 -136
231 -140 239 -4 8 -32 55 -62 105 -30 49 -51 93 -47 96 4 4 160 84 347 180
187 95 435 221 550 281 116 59 211 107 213 108 2 0 -11 -26 -29 -57z m149
-126 c29 -94 54 -176 56 -182 1 -5 11 -37 21 -70 10 -33 20 -64 21 -70 10 -36
122 -399 130 -419 3 -7 -9 -17 -28 -23 -40 -13 -332 -116 -488 -173 -63 -23
-140 -50 -170 -60 -30 -10 -118 -41 -195 -69 -76 -28 -141 -51 -143 -51 -4 0
-6 -3 304 540 136 239 253 444 258 455 52 95 170 295 175 295 3 0 30 -78 59
-173z m74 52 c43 -52 393 -482 593 -729 77 -95 174 -214 215 -264 41 -50 90
-111 109 -135 l34 -43 -159 80 c-87 43 -252 125 -366 181 -113 56 -211 107
-216 114 -5 7 -19 44 -30 82 -19 68 -125 410 -199 645 -19 63 -38 122 -40 130
-5 17 -9 20 59 -61z m1428 19 c0 -5 -23 -75 -51 -156 -170 -493 -247 -714
-292 -849 -28 -84 -55 -153 -59 -153 -5 0 -8 4 -8 10 0 5 -16 45 -36 87 -20
43 -47 105 -61 138 -13 33 -42 98 -64 143 -21 46 -39 86 -39 88 0 2 -13 32
-29 66 -80 176 -261 591 -259 594 2 1 73 5 158 9 85 3 191 8 235 10 44 2 152
7 240 10 88 4 160 7 162 8 6 7 103 2 103 -5z m-3054 -165 c161 -187 164 -191
201 -232 18 -20 33 -39 33 -42 0 -3 -28 -21 -62 -39 -35 -19 -85 -45 -113 -60
-416 -223 -658 -350 -662 -347 -4 5 14 39 288 512 95 165 178 310 183 322 6
13 12 23 13 23 0 0 54 -62 119 -137z m3235 -75 c68 -117 129 -221 134 -230 6
-10 47 -81 93 -158 45 -77 82 -144 82 -149 0 -4 -28 -21 -62 -36 -35 -15 -132
-61 -217 -101 -85 -41 -155 -74 -158 -74 -2 0 -39 -18 -83 -40 -44 -21 -83
-39 -85 -40 -3 0 -52 -23 -110 -50 -58 -28 -110 -50 -115 -50 -5 0 1 26 12 58
11 31 47 134 79 227 32 94 86 249 119 345 33 96 86 250 118 342 31 93 60 168
63 168 3 0 61 -96 130 -212z m-2791 -540 c95 -161 189 -319 208 -351 19 -31
33 -59 31 -62 -5 -4 -42 4 -329 70 -85 20 -166 38 -180 40 -36 6 -59 11 -110
25 -45 12 -63 16 -112 25 -15 3 -116 26 -225 51 -109 25 -205 47 -213 49 -8 2
-23 4 -32 4 -39 2 -12 22 120 92 136 71 171 90 492 261 91 48 168 88 171 88 4
0 84 -132 179 -292z m3206 -168 c27 -47 54 -93 59 -103 22 -38 330 -563 341
-582 13 -20 11 -20 -536 -20 -303 0 -550 2 -550 4 0 10 74 111 82 111 4 0 8 6
8 14 0 8 3 16 8 18 4 2 32 37 62 78 30 41 57 77 60 80 3 3 93 121 199 263 171
227 195 255 206 240 7 -10 34 -56 61 -103z m-397 -226 c-123 -163 -231 -306
-239 -318 -39 -55 -103 -136 -109 -136 -3 0 -43 64 -88 143 -112 196 -135 238
-131 242 4 4 246 118 503 238 49 23 133 63 185 88 52 26 97 45 99 43 2 -2 -97
-137 -220 -300z m-1511 214 c-17 -46 -50 -137 -73 -203 -24 -66 -66 -183 -95
-260 -28 -77 -57 -155 -63 -172 -6 -18 -15 -33 -20 -33 -19 0 -698 393 -690
400 4 4 69 28 143 55 74 26 185 65 245 86 61 21 216 77 345 123 129 47 236 85
237 86 1 0 -12 -37 -29 -82z m460 -98 c200 -100 363 -182 361 -184 -4 -4 -172
-69 -624 -241 -301 -114 -385 -145 -385 -141 0 2 18 52 41 112 23 60 42 114
44 119 1 6 8 24 14 40 7 17 14 37 16 45 2 8 18 53 35 100 17 47 40 108 50 135
47 128 74 195 78 195 2 0 169 -81 370 -180z m-2606 -258 c114 -180 208 -329
208 -332 0 -3 -191 -5 -425 -5 -234 0 -425 2 -425 6 0 3 13 26 30 52 16 26 30
50 30 52 0 4 298 527 328 575 l15 24 16 -23 c9 -13 109 -170 223 -349z m-1
313 c85 -20 168 -38 184 -41 17 -3 48 -10 70 -15 22 -6 47 -13 55 -14 101 -22
187 -41 355 -80 109 -25 208 -47 220 -49 11 -2 38 -9 60 -15 45 -12 83 -19
105 -20 32 -2 -3 -19 -340 -169 -19 -9 -38 -15 -42 -14 -5 1 -8 -3 -8 -8 0 -6
-6 -10 -14 -10 -8 0 -36 -11 -63 -24 -104 -50 -333 -149 -337 -145 -5 5 -355
558 -370 584 -6 11 -17 28 -25 38 -8 9 -12 17 -9 17 2 0 74 -16 159 -35z
m1329 -365 c95 -55 175 -100 176 -100 1 0 42 -23 91 -51 48 -28 113 -65 143
-81 30 -17 60 -35 67 -42 9 -8 -180 -11 -747 -11 -417 0 -762 3 -766 8 -4 4
-1 7 6 7 12 0 244 101 428 186 41 19 75 34 77 34 2 0 32 13 67 29 180 84 264
121 273 121 6 0 89 -45 185 -100z m1820 -89 c57 -99 101 -183 99 -188 -5 -10
-1162 -11 -1187 -1 -13 5 -13 7 -2 7 14 1 190 67 695 260 143 55 267 100 276
100 12 1 50 -57 119 -178z m-432 -478 l-1 -233 -808 0 c-445 0 -809 3 -810 8
-5 51 -2 453 4 455 4 1 369 2 811 2 l804 0 0 -232z"/>
</g>
</svg>
