<?xml version="1.0" encoding="UTF-8"?>
<svg width="1059px" height="468px" viewBox="0 0 1059 468" version="1.1" xmlns="http://www.w3.org/2000/svg" xmlns:xlink="http://www.w3.org/1999/xlink">
    <!-- Generator: Sketch 58 (84663) - https://sketch.com -->
    <title>Artboard Copy</title>
    <desc>Created with Sketch.</desc>
    <g id="Artboard-Copy" stroke="none" stroke-width="1" fill="none" fill-rule="evenodd">
        <g id="Group-2" transform="translate(6.000000, 1.000000)" fill="#FF1F56">
            <path d="M932.854817,342.89521 C937.423226,342.89521 941.638065,343.60834 945.499458,345.034622 C949.360852,346.460904 952.868685,348.435727 956.023063,350.959149 L956.023063,344.540911 L976.417647,344.540911 L976.417647,419.914058 C976.417647,427.155182 975.819412,433.052222 974.622924,437.605353 C973.426435,442.158484 971.63173,446.135557 969.238754,449.536692 C965.649289,454.583536 960.809023,458.505753 954.71781,461.30346 C948.626597,464.101167 941.774086,465.5 934.16007,465.5 C930.24429,465.5 926.437339,465.088579 922.739103,464.265724 C919.040867,463.442869 915.560226,462.290889 912.297076,460.80975 C909.033927,459.328611 906.015558,457.573213 903.241881,455.543504 C900.468204,453.513794 898.102456,451.346975 896.144566,449.042981 L909.523413,435.054515 C910.611129,436.261369 911.889177,437.523061 913.357595,438.839629 C914.826012,440.156198 916.566332,441.390462 918.578608,442.542459 C920.590884,443.694456 922.875054,444.654439 925.431188,445.422437 C927.987322,446.190435 930.89692,446.574428 934.16007,446.574428 C937.640763,446.574428 940.740709,446.053295 943.46,445.011012 C946.179291,443.968728 948.463462,442.350471 950.31258,440.156191 C951.944155,438.291053 953.167818,435.987093 953.983605,433.244243 C954.799393,430.501393 955.20728,426.551748 955.20728,421.395189 L955.20728,418.762066 C949.007296,423.589483 941.937244,426.003155 933.996913,426.003155 C928.123244,426.003155 922.521588,424.796319 917.191776,422.382611 C911.861965,419.968902 907.456779,416.677532 903.976086,412.508399 C900.821708,408.887837 898.374383,404.691339 896.634036,399.91878 C894.89369,395.146221 894.023529,390.017168 894.023529,384.531467 C894.023529,378.606911 895.029652,373.121293 897.041928,368.074448 C899.054203,363.027604 901.827839,358.63911 905.362918,354.908833 C908.897997,351.178557 913.004065,348.243751 917.681246,346.104328 C922.358428,343.964905 927.416234,342.89521 932.854817,342.89521 Z M317.800745,345.724551 L340.9035,393.421392 L362.216605,345.724551 L384.505882,345.724551 L330.165599,464.556886 L308.039017,464.556886 L329.840208,417.187859 L294.535294,345.724551 L317.800745,345.724551 Z M579.340214,345.724551 L602.593146,393.421392 L621.270588,354.658163 L621.218234,400.178579 L619.132203,404.741352 L591.785445,464.556886 L569.515032,464.556886 L591.457939,417.187859 L555.923529,345.724551 L579.340214,345.724551 Z M461.217647,308 L461.217647,425.181886 L440.823063,425.181886 L440.823063,418.745135 C437.559914,421.605927 434.079273,423.668968 430.381037,424.934319 C426.6828,426.19967 422.821465,426.832335 418.796913,426.832335 C412.923244,426.832335 407.34878,425.622018 402.073355,423.201347 C396.797929,420.780677 392.419936,417.479811 388.939243,413.298653 C385.784865,409.667647 383.310347,405.459043 381.515614,400.672717 C379.720882,395.886391 378.823529,390.742542 378.823529,385.241018 C378.823529,379.299371 379.829652,373.797929 381.841928,368.736527 C383.854203,363.675124 386.627839,359.273971 390.162918,355.532934 C393.697997,351.791897 397.804065,348.848626 402.481246,346.703031 C407.158428,344.557437 412.216234,343.484656 417.654817,343.484656 C426.356549,343.484656 433.807296,345.960305 440.00728,350.911677 L440.00728,308 L461.217647,308 Z M651.021298,323.08982 L651.021298,345.118263 L677.147059,345.118263 L677.147059,363.067365 L651.021298,363.067365 L651.021298,393.254491 C651.021298,395.7565 651.239011,397.768954 651.674442,399.291916 C652.109874,400.814878 652.763011,402.120254 653.633874,403.208084 C654.722453,404.404697 656.137584,405.356533 657.87931,406.063623 C659.621036,406.770712 661.798161,407.124251 664.410751,407.124251 C665.934761,407.124251 667.567605,407.042665 669.309331,406.879491 C671.051057,406.716317 672.302904,406.525949 673.064909,406.308383 L676.330629,424.257485 C674.915476,424.8014 672.874422,425.20933 670.207404,425.481287 C667.540386,425.753245 665.172762,425.889222 663.104462,425.889222 C656.681848,425.889222 651.184607,424.882994 646.612576,422.870509 C642.040545,420.858024 638.393861,418.056904 635.672414,414.467066 C633.604114,411.747491 632.107341,408.538442 631.182049,404.83982 C630.256757,401.141199 629.794118,396.463601 629.794118,390.806886 L629.794118,323.08982 L651.021298,323.08982 Z M506.678346,343.838323 C511.246756,343.838323 515.461594,344.542383 519.322988,345.950525 C523.184382,347.358666 526.692215,349.308371 529.846593,351.799698 L529.846593,345.463094 L550.241176,345.463094 L550.241176,424.264451 L529.846593,424.264451 L529.846593,417.927847 C526.583443,420.74413 523.102802,422.775072 519.404566,424.020736 C515.70633,425.266399 511.844994,425.889222 507.820443,425.889222 C501.946773,425.889222 496.372309,424.697735 491.096884,422.314727 C485.821459,419.931719 481.443465,416.682211 477.962772,412.566105 C474.808394,408.991593 472.333876,404.84847 470.539144,400.136613 C468.744412,395.424756 467.847059,390.360939 467.847059,384.945011 C467.847059,379.095809 468.853182,373.679962 470.865457,368.697308 C472.877733,363.714655 475.651368,359.381977 479.186447,355.699146 C482.721526,352.016315 486.827595,349.118837 491.504776,347.006625 C496.181957,344.894413 501.239763,343.838323 506.678346,343.838323 Z M197.092106,343.838323 C202.591185,343.838323 207.650262,344.921493 212.269488,347.087864 C216.888714,349.254235 220.875486,352.151713 224.229924,355.780385 C227.584362,359.409057 230.196385,363.660496 232.066072,368.534831 C233.935759,373.409166 234.870588,378.608379 234.870588,384.132626 C234.870588,386.407316 234.705618,388.411179 234.375674,390.144276 L178.945237,390.144276 C179.275182,392.960558 180.045041,395.506006 181.254839,397.780696 C182.464636,400.055386 184.03185,402.005091 185.956528,403.629869 C187.881205,405.254647 190.080804,406.527371 192.555389,407.448079 C195.029974,408.368787 197.696988,408.829134 200.556509,408.829134 C205.175735,408.829134 209.217497,407.827202 212.681917,405.823309 C216.146336,403.819415 218.813349,401.788473 220.683036,399.73042 L232.89093,411.75372 C229.041575,416.3031 224.174963,419.796321 218.290949,422.233488 C212.406935,424.670656 206.330544,425.889222 200.061594,425.889222 C194.122589,425.889222 188.596098,424.914369 183.481954,422.964635 C178.367811,421.014901 173.941119,418.252819 170.201746,414.678307 C166.462372,411.103794 163.520409,406.798196 161.375769,401.761383 C159.231128,396.72457 158.158824,391.119169 158.158824,384.945011 C158.158824,379.420764 159.066158,374.194472 160.880854,369.265978 C162.69555,364.337484 165.307573,359.977727 168.717002,356.186577 C172.126431,352.395428 176.223183,349.389633 181.007381,347.169102 C185.79158,344.948572 191.153101,343.838323 197.092106,343.838323 Z M38.9332827,343.838323 C44.4323615,343.838323 49.491438,344.921493 54.1106641,347.087864 C58.7298903,349.254235 62.7166625,352.151713 66.0711006,355.780385 C69.4255386,359.409057 72.0375618,363.660496 73.9072486,368.534831 C75.7769353,373.409166 76.7117647,378.608379 76.7117647,384.132626 C76.7117647,386.407316 76.5467948,388.411179 76.2168501,390.144276 L20.7864137,390.144276 C21.1163584,392.960558 21.8862179,395.506006 23.0960152,397.780696 C24.3058125,400.055386 25.8730264,402.005091 27.797704,403.629869 C29.7223815,405.254647 31.92198,406.527371 34.3965655,407.448079 C36.8711509,408.368787 39.5381641,408.829134 42.397685,408.829134 C47.0169111,408.829134 51.0586734,407.827202 54.523093,405.823309 C57.9875126,403.819415 60.6545258,401.788473 62.5242125,399.73042 L74.7321063,411.75372 C70.8827512,416.3031 66.0161395,419.796321 60.1321252,422.233488 C54.248111,424.670656 48.1717201,425.889222 41.9027704,425.889222 C35.9637654,425.889222 30.4372741,424.914369 25.3231309,422.964635 C20.2089877,421.014901 15.7822957,418.252819 12.0429222,414.678307 C8.30354867,411.103794 5.36158568,406.798196 3.21694497,401.761383 C1.07230427,396.72457 -3.69482223e-13,391.119169 -3.69482223e-13,384.945011 C-3.69482223e-13,379.420764 0.90733438,374.194472 2.72203036,369.265978 C4.53672634,364.337484 7.14874956,359.977727 10.5581784,356.186577 C13.9676072,352.395428 18.0643594,349.389633 22.8485579,347.169102 C27.6327564,344.948572 32.9942777,343.838323 38.9332827,343.838323 Z M1017.22661,343.838323 C1019.84324,343.838323 1022.45983,344.054957 1025.07646,344.488231 C1027.69308,344.921506 1030.17339,345.517249 1032.51746,346.275479 C1034.86152,347.033709 1037.04201,347.900244 1039.059,348.875111 C1041.07598,349.849978 1042.73861,350.824831 1044.04692,351.799698 L1034.07107,367.072538 C1031.99958,365.556078 1029.65555,364.283354 1027.03892,363.254328 C1024.42229,362.225302 1021.69667,361.710796 1018.86199,361.710796 C1015.91828,361.710796 1013.38346,362.252381 1011.25745,363.335566 C1009.13144,364.418752 1008.06845,365.989348 1008.06845,368.0474 C1008.06845,369.780497 1009.02242,371.161538 1010.93037,372.190564 C1012.83833,373.219591 1015.20962,374.221522 1018.0443,375.196389 C1020.87898,376.171256 1023.95893,377.227347 1027.28423,378.364691 C1030.60952,379.502036 1033.68947,381.045553 1036.52415,382.995287 C1039.35883,384.945021 1041.73012,387.382152 1043.63808,390.306753 C1045.54603,393.231354 1046.5,396.968288 1046.5,401.517668 C1046.5,405.308817 1045.6278,408.693721 1043.88338,411.672482 C1042.13896,414.651242 1039.82219,417.19669 1036.933,419.308902 C1034.0438,421.421114 1030.6913,423.045868 1026.87538,424.183213 C1023.05946,425.320558 1019.08006,425.889222 1014.93707,425.889222 C1009.37673,425.889222 1003.84373,424.995607 998.337909,423.208351 C992.832085,421.421094 987.735186,418.794409 983.047059,415.328215 L993.349985,400.217851 C996.07564,402.709178 999.373634,404.631804 1003.24406,405.985786 C1007.1145,407.339768 1011.06664,408.016749 1015.10061,408.016749 C1017.93529,408.016749 1020.33383,407.393926 1022.2963,406.148263 C1024.25877,404.902599 1025.23999,403.304925 1025.23999,401.355191 C1025.23999,399.405457 1024.28603,397.807782 1022.37807,396.562118 C1020.47011,395.316455 1018.09883,394.179127 1015.26414,393.150101 C1012.42946,392.121074 1009.34952,391.037905 1006.02422,389.90056 C1002.69892,388.763215 999.618975,387.300937 996.784294,385.513681 C993.949612,383.726424 991.578327,381.478848 989.670368,378.770884 C987.76241,376.06292 986.808445,372.596778 986.808445,368.372354 C986.808445,364.581205 987.653385,361.169221 989.343291,358.136302 C991.033198,355.103382 993.295458,352.530855 996.130139,350.418643 C998.964821,348.306431 1002.2083,346.681677 1005.86068,345.544332 C1009.51306,344.406987 1013.30166,343.838323 1017.22661,343.838323 Z M851.263824,343.838323 C856.898852,343.838323 862.119461,344.985291 866.925809,347.27926 C871.732156,349.573229 875.79263,352.686426 879.107353,356.618944 C881.759131,359.786806 883.803179,363.500795 885.239559,367.761023 C886.675939,372.021252 887.394118,377.592236 887.394118,384.474143 L887.394118,424.946108 L865.848529,424.946108 L865.848529,382.835602 C865.848529,378.903083 865.434195,375.817195 864.605515,373.577844 C863.776834,371.338494 862.589076,369.45419 861.042206,367.924878 C858.058956,364.975489 854.026104,363.500817 848.943529,363.500817 C846.623224,363.500817 844.441064,363.828521 842.396985,364.483941 C840.352906,365.139361 838.502214,365.958623 836.844853,366.941753 C835.187492,367.924882 833.723511,368.989923 832.452868,370.136908 C831.182224,371.283893 830.1602,372.348934 829.386765,373.332063 L829.386765,424.946108 L807.841176,424.946108 L807.841176,345.476864 L828.558088,345.476864 L828.558088,351.867175 C831.651829,349.354732 835.076991,347.388503 838.833676,345.968427 C842.590362,344.548351 846.733703,343.838323 851.263824,343.838323 Z M286.463909,343.838323 C287.975137,343.838323 289.243471,343.892941 290.268947,344.002177 C291.294423,344.111414 292.400842,344.275267 293.588235,344.49374 L291.159488,364.320087 C290.403874,364.101614 289.324441,363.910453 287.921157,363.746598 C286.517874,363.582743 285.06064,363.500817 283.549412,363.500817 C281.282569,363.500817 279.123704,363.883139 277.072751,364.647795 C275.021799,365.412452 273.159777,366.368258 271.486632,367.515242 C269.813486,368.662227 268.383238,369.89112 267.195844,371.20196 C266.008451,372.512799 265.090933,373.769001 264.443264,374.970604 L264.443264,424.946108 L243.394118,424.946108 L243.394118,345.476864 L263.633681,345.476864 L263.633681,353.505716 C266.008469,350.556327 269.192795,348.207775 273.186755,346.459989 C277.180716,344.712203 281.606389,343.838323 286.463909,343.838323 Z M798.370588,345.724551 L798.370588,424.946108 L775.641176,424.946108 L775.641176,345.724551 L798.370588,345.724551 Z M95.815496,345.724551 L117.435294,394.074202 L139.055092,345.724551 L161,345.724551 L124.750263,424.946108 L110.120325,424.946108 L73.8705882,345.724551 L95.815496,345.724551 Z M706.269118,308 L706.269118,350.825335 C709.252368,348.519344 712.594663,346.707521 716.296103,345.389812 C719.997543,344.072103 723.947528,343.413258 728.146176,343.413258 C733.781205,343.413258 739.001814,344.566236 743.808162,346.872227 C748.614509,349.178218 752.674983,352.307731 755.989706,356.260859 C758.641484,359.445322 760.685532,363.178776 762.121912,367.461331 C763.558291,371.743886 764.276471,377.344066 764.276471,384.262039 L764.276471,424.946108 L742.730882,424.946108 L742.730882,382.614911 C742.730882,378.661783 742.316548,375.559723 741.487868,373.308636 C740.659187,371.05755 739.471429,369.163371 737.924559,367.626044 C734.941309,364.661198 730.908457,363.178797 725.825882,363.178797 C723.505577,363.178797 721.323417,363.50822 719.279338,364.167074 C717.235259,364.825929 715.384567,365.649485 713.727206,366.637767 C712.069845,367.626049 710.605864,368.696671 709.335221,369.849667 C708.064577,371.002662 707.042553,372.073285 706.269118,373.061567 L706.269118,424.946108 L684.723529,424.946108 L684.723529,308 L706.269118,308 Z M420.42848,363.290045 C417.274102,363.290045 414.446081,363.895204 411.944333,365.105539 C409.442585,366.315874 407.32157,367.9388 405.581223,369.974364 C403.840877,372.009928 402.481251,374.348041 401.502306,376.988772 C400.523361,379.629504 400.033896,382.380225 400.033896,385.241018 C400.033896,388.431902 400.550554,391.347666 401.583885,393.988398 C402.617215,396.62913 404.085611,398.912228 405.989115,400.837762 C407.892619,402.763296 410.122404,404.276192 412.678538,405.376497 C415.234672,406.476802 417.981115,407.026946 420.91795,407.026946 C424.942501,407.026946 428.61349,406.119208 431.931025,404.303705 C435.248561,402.488202 437.940619,400.095075 440.00728,397.124251 L440.00728,373.19274 C437.831847,370.221916 435.058211,367.828789 431.68629,366.013286 C428.314369,364.197783 424.561803,363.290045 420.42848,363.290045 Z M509.452009,363.335566 C506.297631,363.335566 503.469611,363.93131 500.967863,365.122814 C498.466114,366.314318 496.345099,367.911993 494.604752,369.915886 C492.864406,371.919779 491.504781,374.221514 490.525836,376.82116 C489.546891,379.420805 489.057426,382.128728 489.057426,384.945011 C489.057426,388.086249 489.574083,390.956648 490.607414,393.556293 C491.640745,396.155939 493.10914,398.403515 495.012644,400.29909 C496.916148,402.194665 499.145934,403.684023 501.702068,404.767208 C504.258201,405.850394 507.004645,406.391978 509.941479,406.391978 C513.966031,406.391978 517.637019,405.498364 520.954554,403.711107 C524.27209,401.923851 526.964148,399.567958 529.03081,396.643357 L529.03081,373.084188 C526.855376,370.159587 524.081741,367.803694 520.709819,366.016437 C517.337898,364.229181 513.585332,363.335566 509.452009,363.335566 Z M935.62848,362.643632 C932.474102,362.643632 929.646081,363.24705 927.144333,364.453904 C924.642585,365.660758 922.52157,367.279016 920.781223,369.308725 C919.040877,371.338434 917.681251,373.669822 916.702306,376.302958 C915.723361,378.936094 915.233896,381.678903 915.233896,384.531467 C915.233896,387.713173 915.750554,390.620551 916.783885,393.253687 C917.817215,395.886823 919.285611,398.163355 921.189115,400.08335 C923.092619,402.003345 925.322404,403.51189 927.878538,404.60903 C930.434672,405.70617 933.181115,406.254732 936.11795,406.254732 C940.142501,406.254732 943.81349,405.349605 947.131025,403.539324 C950.448561,401.729043 953.140619,399.342799 955.20728,396.380521 L955.20728,372.517844 C953.031847,369.555565 950.258211,367.169321 946.88629,365.35904 C943.514369,363.548759 939.761803,362.643632 935.62848,362.643632 Z M38.9332827,360.898411 C34.4240382,360.898411 30.5747408,362.306531 27.3852751,365.122814 C24.1958095,367.939096 22.3261508,371.134446 21.7762429,374.708958 L54.7705503,374.708958 C54.5505871,372.975861 54.0281825,371.26987 53.2033207,369.590932 C52.3784589,367.911994 51.2786596,366.422636 49.9038899,365.122814 C48.5291203,363.822991 46.9069164,362.79398 45.0372296,362.03575 C43.1675428,361.27752 41.1329142,360.898411 38.9332827,360.898411 Z M197.092106,360.898411 C192.582862,360.898411 188.733564,362.306531 185.544099,365.122814 C182.354633,367.939096 180.484974,371.134446 179.935066,374.708958 L212.929374,374.708958 C212.709411,372.975861 212.187006,371.26987 211.362144,369.590932 C210.537282,367.911994 209.437483,366.422636 208.062713,365.122814 C206.687944,363.822991 205.06574,362.79398 203.196053,362.03575 C201.326366,361.27752 199.291738,360.898411 197.092106,360.898411 Z M787.005882,308 C790.125621,308 792.799643,309.090819 795.028028,311.272491 C797.256413,313.454163 798.370588,316.135761 798.370588,319.317365 C798.370588,322.49897 797.256413,325.180568 795.028028,327.362239 C792.799643,329.543911 790.125621,330.634731 787.005882,330.634731 C783.886144,330.634731 781.212122,329.543911 778.983737,327.362239 C776.755352,325.180568 775.641176,322.49897 775.641176,319.317365 C775.641176,316.135761 776.755352,313.454163 778.983737,311.272491 C781.212122,309.090819 783.886144,308 787.005882,308 Z" id="Combined-Shape" fill-rule="nonzero"></path>
            <path d="M523.25,0 C584.139394,0 633.5,50.0693682 633.5,111.833064 C633.5,146.471143 617.97536,177.431184 593.599044,197.944405 C592.212588,199.24363 590.694456,200.62446 589.044763,202.085261 C573.760327,215.619616 550.782724,235.757862 520.111954,262.5 L520.111058,223.621674 C460.673208,221.936141 413,172.53188 413,111.833064 C413,50.0693682 462.360606,0 523.25,0 Z M570.786828,74.2206547 C547.14159,57.187555 513.699443,64.1956038 496.252968,89.8282875 C483.873456,108.016495 482.429332,131.770473 492.575789,150.299918 C496.001597,156.592027 501.084841,162.186569 507.653013,166.917912 C515.042206,172.240673 523.024257,175.973326 532.102651,178.394637 C533.909641,178.855935 535.715111,177.761106 536.193144,175.920055 C536.64398,174.059414 535.582998,172.20264 533.795081,171.713319 C522.780965,168.780529 515.779946,164.325597 511.510635,161.250224 C505.763484,157.110298 501.339578,152.284614 498.403119,146.891453 C489.484188,130.633053 490.797455,109.768412 501.718236,93.7233986 C517.053536,71.1924917 546.305245,64.9480787 566.94008,79.8122585 C572.823982,84.0506918 573.996747,92.754174 569.601661,99.2115166 C565.206574,105.668859 556.828038,107.492118 550.971589,103.27346 C542.077104,96.8663717 529.554836,99.4447553 523.029141,109.032426 C516.503447,118.620096 518.431156,131.607435 527.325641,138.014524 C538.135672,145.801464 551.24493,148.772757 564.207836,146.38571 C574.237434,144.533209 581.459084,140.994081 589.962506,133.713961 C590.198093,133.547601 590.398283,133.313587 590.571316,133.060005 C591.415455,131.819141 591.389668,130.119459 590.415648,128.913538 C589.253158,127.44578 587.133749,127.263725 585.705887,128.462727 C578.186247,134.896869 571.808288,138.03516 563.035821,139.65857 C551.842066,141.723219 540.504581,139.145308 531.17239,132.42292 C525.288488,128.184487 524.115722,119.481004 528.510809,113.023662 C532.905895,106.566319 541.284432,104.74306 547.140881,108.961718 C556.035365,115.368807 568.576887,112.762136 575.083328,103.202753 C581.589769,93.6433688 579.681313,80.6277434 570.786828,74.2206547 Z M560.913708,88.3145478 C544.619999,76.5774718 521.623682,81.4036417 509.604035,99.06313 C497.584387,116.722618 501.068358,140.624494 517.334598,152.341782 C526.152409,158.69364 535.798864,162.568328 545.189352,163.521688 C554.38531,164.461246 559.232794,163.994738 567.351877,162.558571 C568.284049,162.38801 569.038828,161.878858 569.539042,161.14448 C570.019641,160.437829 570.273145,159.525741 570.044245,158.602895 C569.773055,156.723059 568.020377,155.460528 566.202359,155.793174 C558.996412,157.087309 554.631512,157.564309 545.852086,156.672144 C537.582532,155.810523 529.067705,152.371622 521.181044,146.690513 C507.926985,137.143031 505.195757,117.53213 515.080874,103.008733 C524.985103,88.4572575 543.81346,84.4185203 557.067262,93.9658171 C558.573481,95.0508129 560.671196,94.6669904 561.728995,93.1128516 C562.786795,91.5587128 562.419927,89.3995435 560.913708,88.3145478 Z M541.861033,47.3610643 C530.477398,47.517207 519.710383,50.3429034 509.784532,55.7479581 C488.883156,67.1459054 473.491625,89.8192144 470.275441,113.914461 C468.74124,125.406512 469.877834,136.849024 473.702491,147.918247 C474.31379,149.702163 476.212272,150.607957 477.946494,149.967612 C478.618338,149.695739 479.165154,149.249953 479.549077,148.686428 C480.143395,147.812704 480.35678,146.664966 480.005499,145.571847 C476.52431,135.547993 475.499083,125.193481 476.885499,114.812572 C479.817106,92.8636779 493.847083,72.1907889 512.885079,61.8023081 C521.81948,56.9006665 531.58165,54.3589127 541.893202,54.2284548 C543.73175,54.2092719 545.212233,52.630316 545.204001,50.7348053 C545.195513,48.8391107 543.699762,47.3416173 541.861033,47.3610643 Z M589.570953,101.669789 C587.899462,100.885825 585.888581,101.620794 585.126708,103.339732 C583.975908,105.870256 582.559519,108.251592 581.638889,109.604198 C577.802992,115.23997 573.331343,118.990203 567.996533,121.068649 C558.814742,124.659469 548.745133,123.495343 541.045387,117.948877 C539.538267,116.863232 537.442149,117.243096 536.386951,118.792871 C535.332252,120.342995 535.70219,122.499268 537.20931,123.584913 C546.744726,130.453693 559.146278,131.911774 570.37743,127.529449 C576.901346,124.96385 582.554079,120.258473 587.118748,113.551976 C587.655842,112.762867 589.527155,109.953317 591.195777,106.241844 C591.957394,104.522721 591.242445,102.453753 589.570953,101.669789 Z M505.798467,43.8317295 C504.944634,42.1673534 502.921136,41.5072553 501.301706,42.3972547 C487.741679,49.7521726 478.054259,58.3858648 469.889057,70.3823303 C461.647127,82.4915268 456.648238,95.9713104 455.021123,110.453293 C454.816376,112.362351 456.122823,114.016761 457.95418,114.244941 C459.80451,114.444688 461.417173,113.088301 461.648954,111.198717 C463.136145,97.8749706 467.720319,85.481382 475.329734,74.3014893 C482.958196,63.0936118 491.653263,55.3818227 504.380752,48.4761199 C504.790482,48.2316826 505.140066,47.943919 505.424747,47.5828921 L505.424747,47.5828921 L505.561657,47.3961348 L505.677549,47.2135724 C506.264146,46.2210086 506.344355,44.935938 505.798467,43.8317295 Z" id="Combined-Shape"></path>
        </g>
    </g>
</svg>