<?xml version="1.0" encoding="UTF-8" standalone="no"?>
<svg
   xmlns:dc="http://purl.org/dc/elements/1.1/"
   xmlns:cc="http://creativecommons.org/ns#"
   xmlns:rdf="http://www.w3.org/1999/02/22-rdf-syntax-ns#"
   xmlns:svg="http://www.w3.org/2000/svg"
   xmlns="http://www.w3.org/2000/svg"
   viewBox="0 0 722.17334 208.96001"
   height="208.96001"
   width="722.17334"
   xml:space="preserve"
   id="svg1307"
   version="1.1"><metadata
     id="metadata1313"><rdf:RDF><cc:Work
         rdf:about=""><dc:format>image/svg+xml</dc:format><dc:type
           rdf:resource="http://purl.org/dc/dcmitype/StillImage" /><dc:title></dc:title></cc:Work></rdf:RDF></metadata><defs
     id="defs1311" /><g
     transform="matrix(1.3333333,0,0,-1.3333333,0,208.96)"
     id="g1315"><g
       transform="scale(0.1)"
       id="g1317"><path
         id="path1319"
         style="fill:#4e4a3d;fill-opacity:1;fill-rule:evenodd;stroke:none"
         d="m 1970.46,467.07 c 5.83,-54.039 27.49,-96.922 64.53,-127.89 37.04,-31.231 85.03,-46.84 143.73,-46.84 38.9,0 74.08,8.172 105.29,24.469 31.22,16.55 55.91,39.363 74.08,68.953 h 188.46 C 2514.63,304 2467.11,240.41 2403.52,194.98 c -63.37,-45.199 -136.74,-67.789 -220.14,-67.789 -55.9,0 -107.39,9.778 -154.44,29.59 -47.06,19.797 -89.22,49.141 -126.73,87.809 -35.41,36.808 -62.89,79.43 -82.46,127.89 -19.57,48.461 -29.35,98.059 -29.35,149.098 0,52.402 9.08,101.563 27.02,147.68 17.93,46.363 44.49,87.832 79.43,124.633 38.2,40.531 81.53,71.746 129.76,93.414 48.21,21.89 97.83,32.843 149.32,32.843 64.99,0 125.79,-14.675 182.16,-44.257 56.38,-29.59 104.37,-71.286 143.97,-124.86 24.22,-32.383 41.93,-68.496 53.57,-108.554 11.65,-40.079 17.48,-85.957 17.48,-137.907 0,-3.968 -0.24,-10.261 -0.7,-18.629 -0.47,-8.64 -0.7,-14.691 -0.7,-18.871 h -601.25 z m 414.19,138.59 c -14.91,50.078 -40.07,88.067 -75.48,114.375 -35.18,26.098 -79.67,39.145 -133.24,39.145 -46.59,0 -88.06,-14.203 -124.87,-42.407 -37.04,-28.179 -61.73,-65.214 -74.54,-111.113 h 408.13 z m 607.71,140 c -67.79,-5.351 -115.07,-23.277 -141.87,-53.34 -26.78,-30.058 -40.29,-84.097 -40.29,-162.359 V 146.988 h -174.72 v 750.797 h 163.76 v -86.66 c 26.33,33.781 55.21,58.473 86.66,74.082 31.44,15.606 66.85,23.527 106.46,23.527 V 745.66 Z M 1352.02,1518.19 C 1140.38,1600.7 373.301,1631.17 372.047,1173.48 148.219,1030.18 0,796.613 0,546.738 0,244.781 244.797,0 546.813,0 c 301.98,0 546.737,244.781 546.737,546.738 0,233.399 -146.265,432.758 -352.034,511.112 -39.586,15.05 -125.563,42.13 -194.211,36.35 -98.063,-62.34 -217.52,-190.442 -274.114,-318.091 84.164,100.934 215.372,144.879 331.696,126.196 171.265,-27.77 302.082,-176.391 302.082,-355.516 0,-198.961 -161.254,-360.211 -360.156,-360.211 -109.622,0 -207.852,48.961 -273.887,126.192 C 175.16,427.012 150,550.898 169.746,671.91 239.02,1095.66 742.074,1337.21 1116.11,1429.89 994.039,1365.32 773.844,1259.16 619.848,1143.6 1069.09,970.188 1141.69,1348.77 1352.02,1518.19 Z M 1533.87,146.988 h -137.2 l -285.13,750.797 h 186.12 l 174.71,-498.976 180.31,498.976 h 181.47 L 1533.87,146.988 v 0" /><path
         id="path1321"
         style="fill:#45ba3a;fill-opacity:1;fill-rule:nonzero;stroke:none"
         d="m 3486.31,467.07 c 5.82,-54.039 27.5,-96.922 64.53,-127.89 37.03,-31.231 85.02,-46.84 143.73,-46.84 38.91,0 74.08,8.172 105.29,24.469 31.21,16.55 55.9,39.363 74.09,68.953 H 4062.4 C 4030.49,304 3982.97,240.41 3919.38,194.98 3856,149.781 3782.62,127.191 3699.24,127.191 c -55.92,0 -107.4,9.778 -154.45,29.59 -47.06,19.797 -89.22,49.141 -126.72,87.809 -35.41,36.808 -62.91,79.43 -82.48,127.89 -19.55,48.461 -29.34,98.059 -29.34,149.098 0,52.402 9.08,101.563 27.01,147.68 17.93,46.363 44.49,87.832 79.44,124.633 38.2,40.531 81.54,71.746 129.76,93.414 48.22,21.89 97.83,32.843 149.32,32.843 64.98,0 125.78,-14.675 182.17,-44.257 56.36,-29.59 104.35,-71.286 143.96,-124.86 24.22,-32.383 41.93,-68.496 53.57,-108.554 11.65,-40.079 17.47,-85.957 17.47,-137.907 0,-3.968 -0.22,-10.261 -0.69,-18.629 -0.47,-8.64 -0.7,-14.691 -0.7,-18.871 h -601.25 z m 414.18,138.59 c -14.9,50.078 -40.06,88.067 -75.47,114.375 -35.18,26.098 -79.67,39.145 -133.24,39.145 -46.6,0 -88.07,-14.203 -124.87,-42.407 -37.03,-28.179 -61.73,-65.214 -74.55,-111.113 h 408.13 z m 881.27,-458.672 v 92.25 c -20.96,-37.269 -50.31,-65 -88.28,-82.699 -37.97,-17.711 -86.66,-26.559 -145.82,-26.559 -110.9,0 -203.62,37.969 -277.91,113.692 -74.32,75.699 -111.59,169.797 -111.59,282.09 0,52.886 9.32,102.965 27.95,150.25 18.64,47.289 45.2,88.984 79.91,124.867 37.26,39.598 78.73,68.719 124.16,87.586 45.43,18.871 96.68,28.422 153.51,28.422 54.51,0 101.56,-9.086 140.94,-27.254 39.35,-18.176 71.03,-45.66 95.04,-82.695 v 90.847 h 170.74 V 146.988 h -168.65 z m -444.69,381.563 c 0,-63.121 20.96,-115.992 63.13,-158.629 41.93,-42.641 93.18,-63.832 153.75,-63.832 54.96,0 103.41,21.43 145.35,64.058 41.7,42.883 62.67,92.954 62.67,150.262 0,61.031 -20.97,113.438 -63.14,157.242 -41.94,44.028 -91.31,65.918 -147.68,65.918 -58.94,0 -109.49,-20.722 -151.42,-62.422 -41.7,-41.699 -62.66,-92.5 -62.66,-152.597 z M 5416.33,897.785 V 742.164 H 5290.78 V 146.988 h -169.35 v 595.176 h -89.46 v 155.621 h 84.08 v 20.5 c 0,78.969 21.68,138.145 65.47,177.035 43.56,38.68 109.94,58.25 198.71,58.25 3.48,0 9.32,-0.24 17.23,-0.71 8.17,-0.46 14.22,-0.69 18.87,-0.69 V 995.16 h -12.35 c -39.59,0 -67.79,-6.523 -84.78,-19.336 -17.25,-13.047 -25.63,-34.476 -25.63,-64.527 v -13.512 h 122.76 z M 3068.38,146.988 v 993.762 h 170.51 V 146.988 h -170.51 v 0" /></g></g></svg>