<?xml version="1.0" encoding="UTF-8" standalone="no"?>
<svg
   xmlns:dc="http://purl.org/dc/elements/1.1/"
   xmlns:cc="http://creativecommons.org/ns#"
   xmlns:rdf="http://www.w3.org/1999/02/22-rdf-syntax-ns#"
   xmlns:svg="http://www.w3.org/2000/svg"
   xmlns="http://www.w3.org/2000/svg"
   viewBox="0 0 2378.8401 834.49335"
   height="834.49335"
   width="2378.8401"
   xml:space="preserve"
   id="svg1361"
   version="1.1"><metadata
     id="metadata1367"><rdf:RDF><cc:Work
         rdf:about=""><dc:format>image/svg+xml</dc:format><dc:type
           rdf:resource="http://purl.org/dc/dcmitype/StillImage" /><dc:title></dc:title></cc:Work></rdf:RDF></metadata><defs
     id="defs1365" /><g
     transform="matrix(1.3333333,0,0,-1.3333333,0,834.49333)"
     id="g1369"><g
       transform="scale(0.1)"
       id="g1371"><path
         id="path1373"
         style="fill:#7baadf;fill-opacity:1;fill-rule:nonzero;stroke:none"
         d="M 6285.35,3129.39 C 6285.35,1418.37 4898.3,31.3008 3187.28,31.3008 1476.26,31.3008 89.207,1418.37 89.207,3129.39 c 0,1711.02 1387.053,3098.07 3098.073,3098.07 1711.02,0 3098.07,-1387.05 3098.07,-3098.07" /><path
         id="path1375"
         style="fill:#464648;fill-opacity:1;fill-rule:nonzero;stroke:none"
         d="m 6944.2,2210.66 c 160.69,-103.01 391.4,-181.29 638.62,-181.29 366.67,0 580.9,193.65 580.9,473.8 0,255.46 -148.31,407.9 -523.22,547.97 -453.2,164.79 -733.37,403.76 -733.37,791.04 0,432.61 358.44,753.97 898.16,753.97 280.15,0 490.27,-65.92 609.76,-135.98 l -98.89,-292.51 c -86.52,53.57 -271.89,131.85 -523.22,131.85 -379.05,0 -523.25,-226.61 -523.25,-416.12 0,-259.57 168.9,-387.28 552.08,-535.61 469.67,-181.27 704.51,-407.88 704.51,-815.76 0,-428.48 -313.11,-803.4 -968.2,-803.4 -267.79,0 -560.32,82.39 -708.63,181.27 l 94.75,300.77" /><path
         id="path1377"
         style="fill:#464648;fill-opacity:1;fill-rule:nonzero;stroke:none"
         d="m 9432.65,4245.94 v -477.91 h 519.11 V 3491.97 H 9432.65 V 2416.65 c 0,-247.19 70.02,-387.28 271.92,-387.28 98.89,0 156.55,8.24 210.12,24.75 l 16.49,-276.07 c -70.06,-24.71 -181.29,-49.43 -321.38,-49.43 -168.91,0 -304.89,57.68 -391.38,152.45 -98.88,111.23 -140.09,288.39 -140.09,523.21 v 1087.69 h -309 v 276.06 h 309 v 370.79 l 354.32,107.12" /><path
         id="path1379"
         style="fill:#464648;fill-opacity:1;fill-rule:nonzero;stroke:none"
         d="m 12028.2,2321.9 c 0,-210.12 4.1,-391.4 16.5,-547.96 h -321.4 l -20.6,325.49 h -8.2 c -90.7,-160.69 -304.9,-370.81 -659.2,-370.81 -313.2,0 -688.1,177.16 -688.1,873.43 v 1165.98 h 362.6 V 2667.98 c 0,-379.04 119.4,-638.61 444.9,-638.61 243.1,0 412,168.94 477.9,333.74 20.7,49.43 33,115.34 33,185.37 v 1219.55 h 362.6 V 2321.9" /><path
         id="path1381"
         style="fill:#464648;fill-opacity:1;fill-rule:nonzero;stroke:none"
         d="m 13989.2,2956.39 c 0,45.32 -4.1,107.1 -16.5,152.45 -53.5,226.59 -251.3,416.1 -523.2,416.1 -374.9,0 -597.4,-329.6 -597.4,-766.31 0,-403.77 201.8,-737.5 589.1,-737.5 243.1,0 465.6,164.82 531.5,432.62 12.4,49.42 16.5,98.87 16.5,156.55 z m 358.4,1742.75 v -2410.2 c 0,-177.16 8.2,-379.05 16.5,-515 h -321.4 l -16.5,346.09 h -12.3 c -107.1,-222.49 -346,-391.41 -671.6,-391.41 -482,0 -856.9,407.88 -856.9,1013.53 -4.1,663.3 412,1067.07 894.1,1067.07 308.9,0 510.8,-144.2 601.5,-300.76 h 8.2 v 1190.68 h 358.4" /><path
         id="path1383"
         style="fill:#464648;fill-opacity:1;fill-rule:nonzero;stroke:none"
         d="m 14953.2,1773.94 v 1994.09 h 362.6 V 1773.94 Z m 403.8,2554.4 c 0,-123.6 -86.6,-222.48 -230.8,-222.48 -131.8,0 -218.3,98.88 -218.3,222.48 0,123.61 90.6,226.6 226.6,226.6 131.8,0 222.5,-98.88 222.5,-226.6" /><g
         transform="scale(1.08723)"
         id="g1385"><path
           id="path1387"
           style="fill:#464648;fill-opacity:1;fill-rule:nonzero;stroke:none"
           d="m 14848.6,2544.87 c 0,-401.67 227.4,-704.82 553.2,-704.82 318.4,0 557.1,299.35 557.1,712.4 0,310.75 -155.4,701.05 -549.4,701.05 -390.4,0 -560.9,-363.8 -560.9,-708.63 z m 1451.4,18.96 c 0,-678.32 -473.7,-973.89 -913.2,-973.89 -492.8,0 -879.2,363.78 -879.2,943.57 0,610.12 405.5,970.1 909.4,970.1 526.8,0 883,-382.74 883,-939.78" /></g><path
         id="path1389"
         style="fill:#ffffff;fill-opacity:1;fill-rule:nonzero;stroke:none"
         d="m 2767.32,3405.55 242.68,-4.66 c 592.67,-9.33 821.35,219.34 821.35,522.69 0,354.7 -256.67,494.68 -583.34,494.68 -154.02,0 -312.68,-14 -480.69,-32.66 z m 1479.4,-1264.71 h 336 V 1879.5 H 4069.38 L 3220.01,3153.55 H 2767.32 V 2140.84 h 443.36 V 1879.5 h -1115.4 v 261.34 h 382.69 V 4385.6 l -382.69,46.66 v 247.34 c 144.68,-32.66 270.7,-55.99 429.34,-55.99 238.01,0 480.71,55.99 718.72,56.01 462.02,0 891.39,-210.01 891.39,-723.38 0,-396.68 -238.01,-648.68 -606.73,-756.02 l 718.72,-1059.38" /><g
         transform="scale(1.08909)"
         id="g1391"><path
           id="path1393"
           style="fill:#464648;fill-opacity:1;fill-rule:nonzero;stroke:none"
           d="m 16264.6,3967.68 c 0,-98.92 -80.4,-179.38 -179.3,-179.38 -98.9,0 -179.3,80.46 -179.3,179.38 0,98.82 80.4,179.26 179.3,179.26 98.9,0 179.3,-80.44 179.3,-179.26 z m -179.3,214.67 c -118.3,0 -214.7,-96.25 -214.7,-214.67 0,-118.42 96.4,-214.68 214.7,-214.68 118.5,0 214.7,96.26 214.7,214.68 0,118.42 -96.2,214.67 -214.7,214.67" /></g><g
         transform="scale(1.0818)"
         id="g1395"><path
           id="path1397"
           style="fill:#464648;fill-opacity:1;fill-rule:nonzero;stroke:none"
           d="m 16228.8,4046.33 c 0,-11.22 -4.3,-20.2 -12.7,-26.5 -10.1,-7.45 -25.6,-11.23 -46.4,-11.23 l -17.9,0.3 v 70.73 c 12.8,1.25 23.8,2.12 34.4,2.12 19.4,0 42.6,-6.19 42.6,-35.42 z m 41.4,-140.47 -53.4,78.85 c 30.1,10.94 46.6,33.57 46.6,64.34 0,47.13 -40,63.86 -77.6,63.86 -10,0 -20.1,-1.16 -30,-2.32 -9.5,-1.07 -19.2,-2.23 -28.7,-2.23 -12.8,0 -23,2.04 -33.9,4.46 l -6,1.34 v -30.66 l 31.2,-3.79 v -173.85 h -31.2 v -31.26 h 100.9 v 31.26 h -36.3 v 72.76 h 29.4 l 67.8,-101.8 1.5,-2.22 h 49.5 v 31.26 h -29.8" /></g></g></g></svg>